<svg xmlns="http://www.w3.org/2000/svg" width="23" height="23" viewBox="0 0 23 23">
  <path id="Icon_ionic-ios-contacts" data-name="Icon ionic-ios-contacts" d="M14.875,3.375a11.5,11.5,0,1,0,11.5,11.5A11.5,11.5,0,0,0,14.875,3.375ZM22.8,17.966c-.448-.144-1.31-.188-1.631-.575-.16-.194-.055-.918-.055-.918a3.489,3.489,0,0,0,1.714-.337c.216-.127.116-.149.006-.337-.6-1.012-.332-2.294-.359-3.406a2.821,2.821,0,0,0-1.106-2.455,3.522,3.522,0,0,0-1.736-.381,3.882,3.882,0,0,0-1.4.227c-2.344.94-.962,4.047-1.764,5.827-.138.3-.337.4.011.581a4.276,4.276,0,0,0,1.6.348s.017.7,0,.769c-.061.271-.652.459-.874.52a7.282,7.282,0,0,0-.907.315.22.22,0,0,0,.044.42,4.274,4.274,0,0,1,.636.16,6.011,6.011,0,0,1,2.543,1.382,3.773,3.773,0,0,1,1.106,2.466.686.686,0,0,1-.3.636l-.315.2a.158.158,0,0,1-.238-.133h0a3.767,3.767,0,0,0-2.532-3.6c-.746-.26-1.554-.276-2.3-.536-.227-.077-.675-.171-.769-.431a3.134,3.134,0,0,1-.105-.818q-.017-.315-.017-.63c0-.138.354-.431.431-.558a4.2,4.2,0,0,0,.381-1.731c.481.133.542-.757.625-1.028.061-.188.276-1.156-.144-1.3a2.325,2.325,0,0,0,.232-.813,4.884,4.884,0,0,0-.061-2.173,3.424,3.424,0,0,0-3.279-2.289,3.515,3.515,0,0,0-3.511,2.09,4.563,4.563,0,0,0-.155,2.184,2.736,2.736,0,0,0,.26,1c-.354.155-.249.979-.188,1.178.088.282.166,1.294.669,1.156a7.909,7.909,0,0,0,.216,1.344,2.01,2.01,0,0,0,.453.769c.1.111.149.122.144.265a5.52,5.52,0,0,1-.105,1.316c-.111.42-1.034.6-1.4.675a8.149,8.149,0,0,0-2.289.636A9.957,9.957,0,0,1,14.781,4.923,9.991,9.991,0,0,1,21.847,7.77a9.976,9.976,0,0,1,2.184,11.036A2.612,2.612,0,0,0,22.8,17.966Z" transform="translate(-3.375 -3.375)"/>
</svg>
