<svg xmlns="http://www.w3.org/2000/svg" width="22.103" height="20.403" viewBox="0 0 22.103 20.403">
  <g id="Icon_ionic-ios-briefcase" data-name="Icon ionic-ios-briefcase" transform="translate(-3.375 -4.5)">
    <path id="Path_1" data-name="Path 1" d="M5.075,27.652h18.7a1.7,1.7,0,0,0,1.7-1.7V15.75H3.375v10.2A1.7,1.7,0,0,0,5.075,27.652Z" transform="translate(0 -2.749)"/>
    <path id="Path_2" data-name="Path 2" d="M23.778,7.9h-.425V7.475a.426.426,0,0,0-.425-.425h-1.7a.426.426,0,0,0-.425.425V7.9H19.315V6.2a1.705,1.705,0,0,0-1.7-1.7H11.239a1.705,1.705,0,0,0-1.7,1.7V7.9H8.051V7.475a.426.426,0,0,0-.425-.425h-1.7a.426.426,0,0,0-.425.425V7.9H5.075a1.7,1.7,0,0,0-1.7,1.7v2.125h22.1V9.6A1.7,1.7,0,0,0,23.778,7.9Zm-5.951,0h-6.8V6.413a.426.426,0,0,1,.425-.425H17.4a.426.426,0,0,1,.425.425Z"/>
  </g>
</svg>
