<svg xmlns="http://www.w3.org/2000/svg" width="21.214" height="13.5" viewBox="0 0 21.214 13.5">
  <path id="Icon_material-group" data-name="Icon material-group" d="M15.964,13.286a2.893,2.893,0,1,0-2.893-2.893A2.881,2.881,0,0,0,15.964,13.286Zm-7.714,0a2.893,2.893,0,1,0-2.893-2.893A2.881,2.881,0,0,0,8.25,13.286Zm0,1.929C6,15.214,1.5,16.342,1.5,18.589V21H15V18.589C15,16.343,10.5,15.214,8.25,15.214Zm7.714,0c-.28,0-.6.019-.935.048a4.069,4.069,0,0,1,1.9,3.327V21h5.786V18.589C22.714,16.343,18.211,15.214,15.964,15.214Z" transform="translate(-1.5 -7.5)" fill="#1b9dfd"/>
</svg>
