<svg xmlns="http://www.w3.org/2000/svg" width="18.371" height="18.369" viewBox="0 0 18.371 18.369">
  <path id="Icon_ionic-ios-call" data-name="Icon ionic-ios-call" d="M22.33,18.886a15.43,15.43,0,0,0-3.223-2.157c-.966-.464-1.32-.454-2,.038-.569.411-.937.794-1.593.65a9.5,9.5,0,0,1-3.2-2.367,9.432,9.432,0,0,1-2.367-3.2c-.139-.66.244-1.023.65-1.593.493-.684.507-1.038.038-2A15.125,15.125,0,0,0,8.476,5.032c-.7-.7-.861-.55-1.248-.411a7.1,7.1,0,0,0-1.143.607A3.448,3.448,0,0,0,4.712,6.677c-.273.588-.588,1.683,1.019,4.543a25.351,25.351,0,0,0,4.457,5.944h0l0,0,0,0h0a25.45,25.45,0,0,0,5.944,4.457C19,23.238,20.1,22.922,20.685,22.65a3.389,3.389,0,0,0,1.449-1.373,7.1,7.1,0,0,0,.607-1.143C22.88,19.747,23.038,19.589,22.33,18.886Z" transform="translate(-4.49 -4.502)" fill="#1b9dfd"/>
</svg>
