<svg xmlns="http://www.w3.org/2000/svg" width="20.826" height="20.832" viewBox="0 0 20.826 20.832">
  <path id="Icon_ionic-ios-settings" data-name="Icon ionic-ios-settings" d="M23.607,14.913a2.68,2.68,0,0,1,1.719-2.5,10.623,10.623,0,0,0-1.285-3.1,2.716,2.716,0,0,1-1.09.233A2.674,2.674,0,0,1,20.5,5.785,10.591,10.591,0,0,0,17.413,4.5a2.678,2.678,0,0,1-5,0,10.623,10.623,0,0,0-3.1,1.285A2.674,2.674,0,0,1,6.87,9.549a2.627,2.627,0,0,1-1.09-.233,10.857,10.857,0,0,0-1.28,3.1,2.679,2.679,0,0,1,.005,5,10.623,10.623,0,0,0,1.285,3.1,2.675,2.675,0,0,1,3.531,3.531,10.685,10.685,0,0,0,3.1,1.285,2.673,2.673,0,0,1,4.99,0,10.623,10.623,0,0,0,3.1-1.285,2.678,2.678,0,0,1,3.531-3.531,10.685,10.685,0,0,0,1.285-3.1A2.693,2.693,0,0,1,23.607,14.913Zm-8.645,4.333A4.339,4.339,0,1,1,19.3,14.908,4.338,4.338,0,0,1,14.962,19.246Z" transform="translate(-4.5 -4.5)"/>
</svg>
