<svg xmlns="http://www.w3.org/2000/svg" width="24.984" height="15.899" viewBox="0 0 24.984 15.899">
  <path id="Icon_material-group" data-name="Icon material-group" d="M18.534,14.314a3.407,3.407,0,1,0-3.407-3.407A3.393,3.393,0,0,0,18.534,14.314Zm-9.085,0a3.407,3.407,0,1,0-3.407-3.407A3.393,3.393,0,0,0,9.449,14.314Zm0,2.271C6.8,16.585,1.5,17.914,1.5,20.56V23.4H17.4V20.56C17.4,17.914,12.1,16.585,9.449,16.585Zm9.085,0c-.329,0-.7.023-1.1.057A4.792,4.792,0,0,1,19.67,20.56V23.4h6.814V20.56C26.484,17.914,21.18,16.585,18.534,16.585Z" transform="translate(-1.5 -7.5)"/>
</svg>
